<?xml version="1.0" standalone="no"?>
<!DOCTYPE svg PUBLIC "-//W3C//DTD SVG 20010904//EN"
 "http://www.w3.org/TR/2001/REC-SVG-20010904/DTD/svg10.dtd">
<svg version="1.0" xmlns="http://www.w3.org/2000/svg"
 width="500.000000pt" height="500.000000pt" viewBox="0 0 500.000000 500.000000"
 preserveAspectRatio="xMidYMid meet">
<metadata>
Created by potrace 1.16, written by Peter Selinger 2001-2019
</metadata>
<g transform="translate(0.000000,500.000000) scale(0.100000,-0.100000)"
fill="#000000" stroke="none">
<path d="M0 2500 l0 -2500 2500 0 2500 0 0 2500 0 2500 -2500 0 -2500 0 0
-2500z m2568 1474 c32 -9 82 -24 112 -34 30 -11 108 -35 173 -55 l118 -36 -4
-162 c-3 -158 -7 -182 -48 -319 -49 -162 -180 -314 -331 -387 -80 -38 -103
-37 -196 8 -236 115 -372 379 -372 722 0 89 4 129 13 136 6 5 50 21 97 36 47
15 141 44 210 66 145 45 153 46 228 25z m-68 -1476 c53 -28 79 -61 82 -108 l3
-35 -56 -3 c-56 -3 -56 -3 -62 28 -12 59 -95 66 -125 10 -8 -15 -11 -48 -9
-84 4 -64 28 -96 71 -96 30 0 66 27 66 51 0 17 7 19 61 19 l62 0 -7 -32 c-14
-75 -70 -118 -160 -125 -121 -10 -193 38 -217 145 -15 62 -1 137 33 184 47 67
173 89 258 46z m1318 -11 c59 -39 77 -77 77 -167 0 -90 -18 -128 -77 -168 -37
-24 -51 -27 -127 -27 -103 0 -149 22 -183 89 -31 57 -31 155 -1 212 37 70 90
94 199 91 58 -2 78 -7 112 -30z m408 14 c44 -20 74 -54 74 -83 0 -15 -9 -18
-60 -18 -46 0 -60 3 -60 15 0 8 -11 17 -24 21 -34 8 -68 -4 -64 -24 3 -17 11
-20 112 -47 78 -21 106 -52 106 -116 0 -42 -5 -53 -35 -83 -39 -39 -92 -52
-179 -43 -69 7 -112 33 -131 80 -8 20 -15 42 -15 47 0 6 27 10 59 10 51 0 61
-3 66 -20 12 -37 110 -39 103 -2 -2 11 -24 22 -68 33 -116 31 -150 60 -150
132 0 68 71 117 170 117 32 0 72 -8 96 -19z m-3261 -8 c4 -10 22 -58 40 -108
18 -49 47 -127 64 -172 l30 -83 -68 0 c-68 0 -69 0 -75 30 l-6 31 -67 -3 c-62
-3 -68 -5 -73 -28 -5 -23 -11 -25 -68 -28 -34 -2 -62 1 -62 5 0 4 30 90 67
191 l66 182 73 0 c59 0 73 -3 79 -17z m505 -10 c56 -51 56 -129 1 -175 l-28
-24 38 -70 c21 -38 39 -72 39 -76 0 -5 -31 -8 -68 -8 l-68 0 -32 71 c-27 61
-34 70 -54 67 -21 -3 -22 -8 -22 -70 l1 -68 -63 0 -64 0 0 190 0 190 145 0
c144 0 145 0 175 -27z m470 -23 l0 -50 -65 0 -65 0 0 -140 0 -140 -60 0 -60 0
0 140 0 140 -65 0 -65 0 0 50 0 50 190 0 190 0 0 -50z m190 -140 l0 -190 -62
0 -63 0 0 190 0 190 63 0 62 0 0 -190z m660 58 c0 -145 8 -168 59 -168 59 0
71 31 71 179 l0 121 60 0 60 0 0 -142 c0 -124 -3 -147 -20 -175 -24 -40 -66
-62 -130 -70 -82 -10 -134 4 -182 46 l-43 39 -3 151 -4 151 66 0 66 0 0 -132z
m469 5 c0 -71 0 -134 1 -140 0 -10 26 -13 95 -13 l95 0 0 -50 0 -50 -160 0
-160 0 0 190 0 190 64 0 64 0 1 -127z m-221 -497 c101 -52 123 -237 38 -322
-57 -57 -183 -71 -269 -30 -101 49 -126 236 -43 320 18 18 48 37 67 44 47 16
167 9 207 -12z m-878 1 c75 -38 92 -150 32 -210 -28 -28 -39 -32 -102 -35
l-70 -4 -1 -44 c-1 -24 -2 -50 -3 -56 -1 -9 -23 -14 -63 -16 l-63 -3 0 191 0
190 123 0 c77 0 131 -5 147 -13z m440 -2 c41 -21 60 -53 60 -103 0 -35 -6 -49
-30 -74 -16 -16 -30 -33 -30 -37 0 -4 16 -36 35 -71 19 -36 35 -68 35 -72 0
-5 -31 -8 -68 -8 l-68 0 -33 70 c-24 52 -37 70 -52 70 -17 0 -19 -7 -19 -70
l0 -70 -65 0 -65 0 0 190 0 190 135 0 c101 0 143 -4 165 -15z"/>
<path d="M2383 3726 c-179 -84 -220 -311 -81 -447 53 -51 102 -72 180 -77 210
-13 353 205 258 395 -67 134 -224 190 -357 129z m299 -123 c10 -9 18 -21 18
-27 0 -6 -61 -74 -135 -151 l-135 -139 -75 74 -75 75 30 29 30 30 44 -43 44
-43 107 106 c59 58 112 106 118 106 6 0 19 -7 29 -17z"/>
<path d="M3652 2423 c-38 -15 -55 -119 -27 -172 24 -48 81 -56 120 -16 21 20
25 34 25 85 0 51 -4 65 -25 85 -23 24 -61 31 -93 18z"/>
<path d="M2887 1813 c-42 -11 -60 -103 -33 -168 19 -45 74 -58 114 -28 24 18
27 28 30 87 3 59 0 69 -22 91 -24 24 -48 29 -89 18z"/>
</g>
</svg>
